<?xml version="1.0" encoding="UTF-8"?>
<svg xmlns="http://www.w3.org/2000/svg" width="201" height="55" viewBox="0 0 201 55" fill="none">
  <g clip-path="url(#clip0_23_2030)">
    <path d="M60.0291 32.8002V21.4306C60.0291 18.1555 58.4961 16.5179 55.4341 16.5179C54.3151 16.5179 53.4502 16.6114 52.8354 16.7942C52.2206 16.9771 51.782 17.1356 51.5155 17.2697V32.8002H45.9205V13.8239C46.0271 13.771 46.3468 13.641 46.8796 13.4256C47.4125 13.2143 48.097 12.9949 48.9373 12.7714C49.7735 12.5479 50.7613 12.3488 51.8926 12.1782C53.024 12.0075 54.2577 11.9222 55.5899 11.9222C57.0819 11.9222 58.4469 12.1091 59.6847 12.4789C60.9226 12.8486 61.9802 13.3891 62.8614 14.1042C63.7427 14.8153 64.419 15.6971 64.8986 16.7374C65.3782 17.7817 65.6159 18.9763 65.6159 20.3213V32.8002H60.0209H60.0291Z" fill="white"></path>
    <path d="M71.6537 14.9738C71.6537 14.0758 71.9201 13.4541 72.453 13.1128C72.9858 12.7714 73.6908 12.5967 74.5721 12.5967C75.1829 12.5967 75.7526 12.6617 76.2691 12.7958C76.7897 12.9299 77.1135 13.0193 77.2487 13.0721V32.8002H71.6537V14.9738ZM77.5316 6.67625C77.5316 8.37477 76.1461 9.74822 74.4328 9.74822C72.7194 9.74822 71.334 8.37071 71.334 6.67625C71.334 4.98179 72.7194 3.60428 74.4328 3.60428C76.1461 3.60428 77.5316 4.97773 77.5316 6.67625Z" fill="white"></path>
    <path d="M92.919 16.5179C91.8 16.5179 90.9351 16.6317 90.3203 16.8552C89.7054 17.0787 89.2791 17.2575 89.0414 17.3916V32.8043H83.4463V14.344C83.5529 14.2627 83.848 14.0921 84.3235 13.8279C84.8031 13.5638 85.4343 13.2916 86.2213 13.0152C87.0083 12.7389 87.9183 12.487 88.9594 12.2635C90.0005 12.04 91.1319 11.9262 92.3574 11.9262C93.1035 11.9262 93.8085 11.9791 94.4766 12.0847C95.1406 12.1904 95.7268 12.3488 96.235 12.5601C96.7392 12.7714 97.1409 13.0477 97.436 13.3931C97.7271 13.7385 97.8746 14.1611 97.8746 14.6609C97.8746 15.4005 97.7271 15.9816 97.436 16.4042C97.145 16.8268 96.8909 17.1437 96.6777 17.355C96.5999 17.2778 96.4236 17.1884 96.1572 17.099C95.8907 17.0055 95.5833 16.9121 95.239 16.8227C94.8947 16.7292 94.5135 16.6561 94.0995 16.6033C93.6855 16.5504 93.292 16.522 92.919 16.522V16.5179Z" fill="white"></path>
    <path d="M110.844 11.9222C112.467 11.9222 113.975 12.1741 115.361 12.6739C116.746 13.1778 117.865 13.9701 118.718 15.051C119.382 14.2058 120.296 13.4744 121.456 12.8527C122.616 12.231 124.075 11.9222 125.829 11.9222C127.002 11.9222 128.108 12.0888 129.15 12.4179C130.191 12.747 131.092 13.2347 131.863 13.8848C132.638 14.5309 133.244 15.3314 133.683 16.2822C134.122 17.2331 134.343 18.3302 134.343 19.5696V32.8002H128.748V21.1137C128.748 19.5533 128.416 18.3993 127.748 17.6476C127.08 16.8958 126.108 16.5179 124.829 16.5179C123.55 16.5179 122.497 16.9527 121.751 17.8264C121.005 18.7 120.632 19.9922 120.632 21.707V32.8002H115.037V21.4306C115.037 19.7687 114.693 18.5334 114 17.7248C113.307 16.9202 112.2 16.5179 110.684 16.5179C109.565 16.5179 108.741 16.6114 108.208 16.7942C107.675 16.9771 107.274 17.1356 107.011 17.2697V32.8002H101.416V13.8239C101.523 13.771 101.83 13.641 102.334 13.4256C102.838 13.2143 103.498 12.9949 104.314 12.7714C105.126 12.5479 106.085 12.3488 107.192 12.1782C108.298 12.0075 109.516 11.9222 110.848 11.9222H110.844Z" fill="white"></path>
    <path d="M158.568 32.6417C158.49 32.6661 158.195 32.7189 157.691 32.8002C157.182 32.8774 156.51 32.9587 155.67 33.0359C154.829 33.1171 153.838 33.1862 152.694 33.2553C151.546 33.3203 150.296 33.3528 148.935 33.3528C146.964 33.3528 145.345 33.1862 144.078 32.8571C142.811 32.5279 141.807 32.0688 141.061 31.4917C140.315 30.9107 139.803 30.2321 139.524 29.4519C139.245 28.6717 139.106 27.8225 139.106 26.896C139.106 25.7623 139.278 24.7708 139.627 23.9256C139.971 23.0804 140.532 22.3856 141.303 21.8451C142.078 21.3047 143.066 20.9024 144.283 20.6383C145.492 20.3741 146.968 20.24 148.697 20.24C149.894 20.24 150.894 20.2726 151.694 20.3376C152.493 20.4026 152.96 20.4513 153.092 20.4757V19.8418C153.092 18.6025 152.665 17.6476 151.813 16.9893C150.96 16.331 149.64 15.9978 147.853 15.9978C147.054 15.9978 146.349 16.0709 145.738 16.2172C145.123 16.3635 144.599 16.5342 144.16 16.7333C143.721 16.9324 143.348 17.1315 143.041 17.3266C142.738 17.5257 142.488 17.676 142.303 17.7817C141.93 17.5704 141.598 17.2331 141.303 16.7699C141.012 16.3066 140.864 15.7865 140.864 15.2054C140.864 14.6244 141.053 14.1286 141.426 13.7182C141.799 13.3078 142.299 12.9787 142.922 12.7267C143.549 12.4748 144.267 12.3001 145.082 12.1903C145.894 12.0847 146.726 12.0319 147.578 12.0319C149.202 12.0319 150.69 12.17 152.034 12.4463C153.378 12.7227 154.538 13.1981 155.51 13.8726C156.481 14.5472 157.236 15.4452 157.768 16.5667C158.301 17.6882 158.568 19.0942 158.568 20.7846V32.6295V32.6417ZM153.055 23.9256C152.977 23.9012 152.817 23.8728 152.575 23.8443C152.337 23.82 152.042 23.7915 151.698 23.7671C151.354 23.7387 150.972 23.7224 150.558 23.7062C150.144 23.694 149.726 23.6859 149.3 23.6859C148.312 23.6859 147.513 23.7671 146.902 23.9256C146.291 24.0841 145.82 24.3035 145.484 24.5798C145.152 24.8561 144.926 25.1893 144.803 25.5713C144.685 25.9533 144.623 26.3555 144.623 26.7781C144.623 27.1479 144.676 27.5055 144.783 27.8468C144.89 28.1882 145.107 28.501 145.443 28.7774C145.775 29.0537 146.242 29.2772 146.841 29.4519C147.439 29.6266 148.218 29.7079 149.177 29.7079C150.189 29.7079 151.03 29.6632 151.694 29.5697C152.358 29.4763 152.813 29.4072 153.055 29.3503V23.9215V23.9256Z" fill="white"></path>
    <path d="M171.045 17.1112V25.8679C171.045 27.0301 171.315 27.8143 171.865 28.2247C172.41 28.6351 173.123 28.8383 174 28.8383C174.373 28.8383 174.742 28.7936 175.099 28.7002C175.459 28.6067 175.779 28.5011 176.058 28.3832C176.341 28.2654 176.57 28.1435 176.759 28.0256C176.943 27.9078 177.054 27.8346 177.083 27.8062L179.161 31.1342C179.108 31.187 178.935 31.3333 178.64 31.569C178.345 31.8046 177.927 32.0566 177.382 32.3207C176.837 32.5848 176.169 32.8205 175.386 33.0359C174.599 33.2472 173.713 33.3528 172.725 33.3528C170.168 33.3528 168.315 32.7067 167.171 31.4105C166.024 30.1183 165.454 28.4401 165.454 26.3799V17.1112H164.134C163.228 17.1112 162.593 16.9121 162.236 16.5179C161.876 16.1238 161.695 15.5671 161.695 14.856C161.695 14.3034 161.777 13.8198 161.933 13.4094C162.093 12.999 162.199 12.7308 162.253 12.5967H165.45V9.11026C165.45 8.21224 165.716 7.59053 166.249 7.2492C166.782 6.90787 167.487 6.73314 168.368 6.73314C168.979 6.73314 169.545 6.79815 170.065 6.93225C170.586 7.06634 170.914 7.15574 171.045 7.20856V12.5967H175.32C176.226 12.5967 176.857 12.7958 177.218 13.19C177.579 13.5841 177.759 14.1408 177.759 14.8519C177.759 15.4086 177.677 15.8881 177.521 16.2985C177.361 16.7089 177.255 16.9771 177.202 17.1112H171.049H171.045Z" fill="white"></path>
    <path d="M201 32.6417C200.918 32.6661 200.627 32.7189 200.119 32.8002C199.615 32.8774 198.942 32.9587 198.098 33.0359C197.258 33.1171 196.266 33.1862 195.122 33.2553C193.979 33.3203 192.724 33.3528 191.367 33.3528C189.396 33.3528 187.777 33.1862 186.51 32.8571C185.248 32.5279 184.239 32.0688 183.493 31.4917C182.747 30.9107 182.235 30.2321 181.956 29.4519C181.678 28.6717 181.538 27.8225 181.538 26.896C181.538 25.7623 181.71 24.7708 182.059 23.9256C182.403 23.0804 182.965 22.3856 183.735 21.8451C184.51 21.3047 185.502 20.9024 186.715 20.6383C187.928 20.3741 189.4 20.24 191.13 20.24C192.331 20.24 193.331 20.2726 194.126 20.3376C194.925 20.4026 195.389 20.4513 195.524 20.4757V19.8418C195.524 18.6025 195.098 17.6476 194.245 16.9893C193.392 16.331 192.072 15.9978 190.289 15.9978C189.49 15.9978 188.785 16.0709 188.17 16.2172C187.56 16.3635 187.031 16.5342 186.592 16.7333C186.154 16.9324 185.781 17.1315 185.473 17.3266C185.166 17.5257 184.92 17.676 184.735 17.7817C184.362 17.5704 184.03 17.2331 183.735 16.7699C183.444 16.3066 183.297 15.7865 183.297 15.2054C183.297 14.6244 183.485 14.1286 183.858 13.7182C184.231 13.3078 184.731 12.9787 185.354 12.7267C185.981 12.4748 186.699 12.3001 187.514 12.1903C188.326 12.0847 189.158 12.0319 190.011 12.0319C191.634 12.0319 193.118 12.17 194.466 12.4463C195.811 12.7227 196.971 13.1981 197.942 13.8726C198.914 14.5472 199.668 15.4452 200.201 16.5667C200.734 17.6882 201 19.0942 201 20.7846V32.6295V32.6417ZM195.483 23.9256C195.401 23.9012 195.245 23.8728 195.003 23.8443C194.766 23.82 194.47 23.7915 194.126 23.7671C193.782 23.7387 193.401 23.7224 192.987 23.7062C192.573 23.694 192.15 23.6859 191.728 23.6859C190.74 23.6859 189.941 23.7671 189.33 23.9256C188.72 24.0841 188.248 24.3035 187.912 24.5798C187.58 24.8561 187.355 25.1893 187.232 25.5713C187.113 25.9533 187.051 26.3555 187.051 26.7781C187.051 27.1479 187.105 27.5055 187.211 27.8468C187.318 28.1882 187.535 28.501 187.871 28.7774C188.203 29.0537 188.67 29.2772 189.269 29.4519C189.867 29.6266 190.646 29.7079 191.605 29.7079C192.618 29.7079 193.458 29.6632 194.122 29.5697C194.786 29.4763 195.241 29.4072 195.479 29.3503V23.9215L195.483 23.9256Z" fill="white"></path>
    <path d="M9.76369 33.0481C8.31676 32.2801 7.14446 30.2118 7.14446 28.436V7.06634L4.70559 5.67258C2.10686 4.18536 0 5.76197 0 9.19559V30.5247C0 32.0119 0.914065 33.7429 2.03718 34.3849L15.1866 41.8901C17.7853 43.3773 19.8922 41.8007 19.8922 38.3671C19.8922 38.3834 19.8922 38.3996 19.8922 38.4159L9.76779 33.044L9.76369 33.0481Z" fill="#71CFEB"></path>
    <path d="M17.8509 13.1778C18.9781 13.8239 19.9045 15.5508 19.9045 17.0381V4.31132C19.9045 4.28288 19.9045 4.2585 19.9045 4.23005L13.1904 0.670468C9.84977 -1.10526 7.14446 0.780181 7.14446 4.8802V7.06634L17.8509 13.1778Z" fill="#D4DCE5"></path>
    <path d="M21.9417 29.5047C20.8144 28.8586 19.9045 27.1317 19.9045 25.6444L19.8922 38.3712C19.8922 38.3712 19.8922 38.4037 19.8922 38.4199L26.6718 42.0161C30.0125 43.7918 32.7178 41.9064 32.7178 37.8064V35.6568L21.9458 29.5047H21.9417Z" fill="#D4DCE5"></path>
    <path d="M37.7554 8.29351L24.606 0.788312C22.0318 -0.686721 19.9373 0.853327 19.9045 4.23006L30.0904 9.63445C31.5373 10.4065 32.7096 12.4707 32.7096 14.2465V35.6527L35.087 37.0099C37.6857 38.4972 39.7885 36.9205 39.7885 33.4828V12.2025V12.1579C39.7885 10.6706 38.8744 8.9396 37.7513 8.29757L37.7554 8.29351Z" fill="#FF5859"></path>
    <path d="M32.7137 14.3034V14.2505C32.7137 12.4748 31.5414 10.4065 30.0945 9.63851L19.9086 4.23412C19.9086 4.26256 19.9086 4.28694 19.9086 4.31538V17.0421C19.9086 15.5549 18.9822 13.8239 17.855 13.1818L7.14856 7.07041V28.4401C7.14856 30.2158 8.32086 32.2841 9.76779 33.0521L19.8922 38.424C19.8922 38.424 19.8922 38.3915 19.8922 38.3752L19.9045 25.6485C19.9045 27.1357 20.8185 28.8668 21.9417 29.5088L32.7137 35.6609V14.3074V14.3034Z" fill="#2E5596"></path>
    <path d="M49.7587 45.0643H48.2118V50.4851H47.2713V45.0643H46.172V44.6153L47.2713 44.3067V43.8971C47.2713 43.3808 47.3487 42.9618 47.5036 42.6401C47.6584 42.3146 47.8832 42.0752 48.1778 41.9218C48.4725 41.7684 48.8313 41.6917 49.2544 41.6917C49.4924 41.6917 49.7096 41.7123 49.906 41.7534C50.1062 41.7946 50.2818 41.8414 50.4329 41.8937L50.1893 42.6288C50.0609 42.5877 49.9154 42.5503 49.753 42.5166C49.5944 42.4792 49.4319 42.4605 49.2657 42.4605C48.9069 42.4605 48.6406 42.5765 48.4668 42.8084C48.2968 43.0366 48.2118 43.3958 48.2118 43.8858V44.3348H49.7587V45.0643Z" fill="white"></path>
    <path d="M53.7249 44.2225C53.8496 44.2225 53.9799 44.23 54.1159 44.245C54.2519 44.2562 54.3727 44.273 54.4785 44.2955L54.3595 45.1597C54.2575 45.1335 54.1442 45.1129 54.0196 45.0979C53.8949 45.083 53.7778 45.0755 53.6683 45.0755C53.419 45.0755 53.1829 45.126 52.96 45.227C52.7409 45.3243 52.5483 45.4664 52.3821 45.6535C52.2159 45.8368 52.0855 46.0594 51.9911 46.3213C51.8967 46.5794 51.8495 46.8675 51.8495 47.1855V50.4851H50.9032V44.3348H51.6851L51.7871 45.4683H51.8268C51.9552 45.2401 52.1101 45.0325 52.2914 44.8454C52.4727 44.6546 52.6824 44.5031 52.9203 44.3909C53.1621 44.2787 53.4303 44.2225 53.7249 44.2225Z" fill="white"></path>
    <path d="M61.0058 47.3987C61.0058 47.9037 60.9397 48.3545 60.8075 48.7511C60.6753 49.1476 60.4846 49.4825 60.2352 49.7556C59.9859 50.0287 59.6837 50.2382 59.3287 50.3841C58.9774 50.5262 58.5789 50.5973 58.1331 50.5973C57.7176 50.5973 57.3361 50.5262 56.9886 50.3841C56.6448 50.2382 56.3464 50.0287 56.0933 49.7556C55.844 49.4825 55.6495 49.1476 55.5097 48.7511C55.3738 48.3545 55.3058 47.9037 55.3058 47.3987C55.3058 46.7253 55.421 46.1529 55.6514 45.6816C55.8818 45.2064 56.2104 44.8454 56.6373 44.5985C57.0679 44.3479 57.5797 44.2225 58.1728 44.2225C58.7394 44.2225 59.2342 44.3479 59.6573 44.5985C60.0841 44.8492 60.4147 45.212 60.6489 45.6872C60.8868 46.1585 61.0058 46.729 61.0058 47.3987ZM56.2803 47.3987C56.2803 47.8925 56.3464 48.3209 56.4786 48.6838C56.6108 49.0466 56.8148 49.3272 57.0906 49.5255C57.3663 49.7238 57.7214 49.8229 58.1558 49.8229C58.5864 49.8229 58.9396 49.7238 59.2154 49.5255C59.4949 49.3272 59.7007 49.0466 59.833 48.6838C59.9652 48.3209 60.0313 47.8925 60.0313 47.3987C60.0313 46.9086 59.9652 46.4859 59.833 46.1305C59.7007 45.7713 59.4968 45.4945 59.221 45.3C58.9453 45.1054 58.5883 45.0082 58.1501 45.0082C57.5042 45.0082 57.0301 45.2195 56.7279 45.6423C56.4295 46.065 56.2803 46.6505 56.2803 47.3987Z" fill="white"></path>
    <path d="M69.3746 44.2225C70.0583 44.2225 70.5739 44.4002 70.9215 44.7556C71.269 45.1073 71.4427 45.6741 71.4427 46.456V50.4851H70.5135V46.5008C70.5135 46.0033 70.404 45.631 70.1849 45.3841C69.9696 45.1335 69.6485 45.0082 69.2216 45.0082C68.621 45.0082 68.1847 45.1802 67.9128 45.5244C67.6408 45.8686 67.5048 46.3755 67.5048 47.0452V50.4851H66.5699V46.5008C66.5699 46.1679 66.5208 45.8911 66.4226 45.6703C66.3282 45.4496 66.1846 45.285 65.992 45.1765C65.8031 45.0643 65.5632 45.0082 65.2724 45.0082C64.8607 45.0082 64.5301 45.0923 64.2808 45.2607C64.0315 45.429 63.8502 45.6797 63.7369 46.0126C63.6273 46.3418 63.5726 46.7478 63.5726 47.2304V50.4851H62.632V44.3348H63.3912L63.5329 45.2046H63.5839C63.7085 44.9913 63.8653 44.8118 64.0542 44.6659C64.243 44.52 64.4546 44.4096 64.6888 44.3348C64.923 44.2599 65.1723 44.2225 65.4367 44.2225C65.9089 44.2225 66.3036 44.3105 66.6209 44.4863C66.942 44.6584 67.1743 44.9221 67.3178 45.2775H67.3688C67.5728 44.9221 67.8523 44.6584 68.2074 44.4863C68.5625 44.3105 68.9516 44.2225 69.3746 44.2225Z" fill="white"></path>
    <path d="M78.395 49.8341C78.5499 49.8341 78.7085 49.821 78.871 49.7948C79.0334 49.7687 79.1656 49.7369 79.2676 49.6995V50.4233C79.1581 50.472 79.0051 50.5131 78.8086 50.5468C78.616 50.5805 78.4271 50.5973 78.242 50.5973C77.9134 50.5973 77.615 50.5412 77.3468 50.429C77.0786 50.313 76.8633 50.1184 76.7009 49.8454C76.5422 49.5723 76.4629 49.1944 76.4629 48.7118V45.0643H75.579V44.6097L76.4686 44.245L76.8425 42.9094H77.4091V44.3348H79.2279V45.0643H77.4091V48.6838C77.4091 49.0691 77.4979 49.3571 77.6754 49.5479C77.8567 49.7387 78.0966 49.8341 78.395 49.8341Z" fill="white"></path>
    <path d="M81.466 41.7534V44.3628C81.466 44.5125 81.4623 44.664 81.4547 44.8174C81.4471 44.967 81.4339 45.1054 81.415 45.2326H81.4774C81.6058 45.0156 81.7682 44.8342 81.9646 44.6883C82.1648 44.5387 82.3915 44.4264 82.6446 44.3516C82.8977 44.273 83.1659 44.2338 83.4492 44.2338C83.9478 44.2338 84.3633 44.3123 84.6957 44.4694C85.0319 44.6266 85.2831 44.8697 85.4493 45.199C85.6193 45.5282 85.7043 45.9546 85.7043 46.4784V50.4851H84.775V46.5401C84.775 46.0276 84.656 45.6441 84.4181 45.3897C84.1839 45.1354 83.8231 45.0082 83.3358 45.0082C82.875 45.0082 82.5067 45.0961 82.231 45.2719C81.959 45.444 81.7626 45.6984 81.6417 46.0351C81.5246 46.3718 81.466 46.7833 81.466 47.2696V50.4851H80.5255V41.7534H81.466Z" fill="white"></path>
    <path d="M90.0331 44.2225C90.562 44.2225 91.0153 44.3385 91.393 44.5705C91.7707 44.8024 92.0597 45.1279 92.2599 45.5469C92.4601 45.9621 92.5602 46.4485 92.5602 47.0059V47.5839H88.271C88.2823 48.3059 88.4636 48.8558 88.8149 49.2337C89.1662 49.6115 89.6611 49.8005 90.2994 49.8005C90.6923 49.8005 91.0398 49.7649 91.342 49.6938C91.6442 49.6228 91.9577 49.518 92.2826 49.3796V50.1989C91.969 50.3373 91.6574 50.4383 91.3477 50.5019C91.0417 50.5655 90.6791 50.5973 90.2598 50.5973C89.663 50.5973 89.1417 50.4776 88.6959 50.2382C88.254 49.995 87.9102 49.6396 87.6647 49.172C87.4192 48.7043 87.2964 48.1319 87.2964 47.4548C87.2964 46.7926 87.4079 46.2203 87.6307 45.7377C87.8574 45.2513 88.1747 44.8772 88.5826 44.6153C88.9944 44.3535 89.4779 44.2225 90.0331 44.2225ZM90.0218 44.9857C89.5194 44.9857 89.119 45.1485 88.8206 45.4739C88.5222 45.7994 88.3446 46.2539 88.288 46.8375H91.5743C91.5705 46.4709 91.512 46.1492 91.3987 45.8723C91.2891 45.5918 91.121 45.3748 90.8944 45.2214C90.6677 45.0643 90.3769 44.9857 90.0218 44.9857Z" fill="white"></path>
    <path d="M99.6598 50.5973C99.1007 50.5973 98.6078 50.4832 98.181 50.255C97.7541 50.0268 97.4217 49.6789 97.1837 49.2112C96.9458 48.7436 96.8268 48.1544 96.8268 47.4436C96.8268 46.6991 96.9514 46.0912 97.2007 45.6198C97.4538 45.1447 97.8013 44.7931 98.2433 44.5648C98.6852 44.3366 99.1876 44.2225 99.7505 44.2225C100.06 44.2225 100.359 44.2543 100.646 44.3179C100.937 44.3778 101.175 44.4545 101.36 44.548L101.076 45.328C100.887 45.2532 100.668 45.1859 100.419 45.126C100.174 45.0661 99.9431 45.0362 99.7278 45.0362C99.2972 45.0362 98.9383 45.1279 98.6512 45.3112C98.3679 45.4945 98.1545 45.7639 98.011 46.1193C97.8712 46.4747 97.8013 46.9124 97.8013 47.4324C97.8013 47.9299 97.8693 48.3545 98.0053 48.7062C98.1451 49.0579 98.3509 49.3272 98.6229 49.5143C98.8987 49.6976 99.2424 49.7892 99.6541 49.7892C99.9828 49.7892 100.279 49.7556 100.544 49.6882C100.808 49.6171 101.048 49.5348 101.263 49.4413V50.2718C101.056 50.3766 100.823 50.457 100.566 50.5131C100.313 50.5692 100.011 50.5973 99.6598 50.5973Z" fill="white"></path>
    <path d="M105.558 44.2225C105.683 44.2225 105.813 44.23 105.949 44.245C106.085 44.2562 106.206 44.273 106.312 44.2955L106.193 45.1597C106.091 45.1335 105.977 45.1129 105.853 45.0979C105.728 45.083 105.611 45.0755 105.502 45.0755C105.252 45.0755 105.016 45.126 104.793 45.227C104.574 45.3243 104.382 45.4664 104.215 45.6535C104.049 45.8368 103.919 46.0594 103.824 46.3213C103.73 46.5794 103.683 46.8675 103.683 47.1855V50.4851H102.736V44.3348H103.518L103.62 45.4683H103.66C103.788 45.2401 103.943 45.0325 104.125 44.8454C104.306 44.6546 104.516 44.5031 104.754 44.3909C104.995 44.2787 105.264 44.2225 105.558 44.2225Z" fill="white"></path>
    <path d="M109.876 44.2225C110.405 44.2225 110.858 44.3385 111.236 44.5705C111.613 44.8024 111.902 45.1279 112.103 45.5469C112.303 45.9621 112.403 46.4485 112.403 47.0059V47.5839H108.114C108.125 48.3059 108.306 48.8558 108.658 49.2337C109.009 49.6115 109.504 49.8005 110.142 49.8005C110.535 49.8005 110.882 49.7649 111.185 49.6938C111.487 49.6228 111.8 49.518 112.125 49.3796V50.1989C111.812 50.3373 111.5 50.4383 111.19 50.5019C110.884 50.5655 110.522 50.5973 110.102 50.5973C109.506 50.5973 108.984 50.4776 108.539 50.2382C108.097 49.995 107.753 49.6396 107.507 49.172C107.262 48.7043 107.139 48.1319 107.139 47.4548C107.139 46.7926 107.25 46.2203 107.473 45.7377C107.7 45.2513 108.017 44.8772 108.425 44.6153C108.837 44.3535 109.32 44.2225 109.876 44.2225ZM109.864 44.9857C109.362 44.9857 108.962 45.1485 108.663 45.4739C108.365 45.7994 108.187 46.2539 108.131 46.8375H111.417C111.413 46.4709 111.355 46.1492 111.241 45.8723C111.132 45.5918 110.964 45.3748 110.737 45.2214C110.51 45.0643 110.219 44.9857 109.864 44.9857Z" fill="white"></path>
    <path d="M116.324 44.2338C117.064 44.2338 117.614 44.3984 117.973 44.7276C118.331 45.0568 118.511 45.5824 118.511 46.3044V50.4851H117.825L117.644 49.576H117.599C117.425 49.8005 117.244 49.9894 117.055 50.1428C116.866 50.2924 116.647 50.4065 116.397 50.4851C116.152 50.5599 115.85 50.5973 115.491 50.5973C115.113 50.5973 114.777 50.5318 114.482 50.4009C114.191 50.27 113.961 50.0717 113.791 49.8061C113.625 49.5405 113.542 49.2038 113.542 48.796C113.542 48.1825 113.787 47.7111 114.278 47.3819C114.769 47.0527 115.517 46.8731 116.522 46.8432L117.593 46.7983V46.4223C117.593 45.8911 117.478 45.5188 117.247 45.3056C117.017 45.0923 116.692 44.9857 116.273 44.9857C115.948 44.9857 115.638 45.0325 115.343 45.126C115.049 45.2195 114.769 45.3299 114.505 45.4571L114.216 44.75C114.495 44.6079 114.817 44.4863 115.179 44.3853C115.542 44.2843 115.923 44.2338 116.324 44.2338ZM117.582 47.4548L116.635 47.4941C115.861 47.524 115.315 47.6493 114.998 47.8701C114.681 48.0908 114.522 48.4032 114.522 48.8072C114.522 49.1589 114.63 49.4189 114.845 49.5872C115.06 49.7556 115.345 49.8397 115.7 49.8397C116.252 49.8397 116.703 49.6882 117.055 49.3852C117.406 49.0822 117.582 48.6276 117.582 48.0216V47.4548Z" fill="white"></path>
    <path d="M122.454 49.8341C122.609 49.8341 122.768 49.821 122.93 49.7948C123.093 49.7687 123.225 49.7369 123.327 49.6995V50.4233C123.217 50.472 123.064 50.5131 122.868 50.5468C122.675 50.5805 122.487 50.5973 122.301 50.5973C121.973 50.5973 121.674 50.5412 121.406 50.429C121.138 50.313 120.923 50.1184 120.76 49.8454C120.602 49.5723 120.522 49.1944 120.522 48.7118V45.0643H119.638V44.6097L120.528 44.245L120.902 42.9094H121.469V44.3348H123.287V45.0643H121.469V48.6838C121.469 49.0691 121.557 49.3571 121.735 49.5479C121.916 49.7387 122.156 49.8341 122.454 49.8341Z" fill="white"></path>
    <path d="M129.939 47.3987C129.939 47.9037 129.873 48.3545 129.741 48.7511C129.609 49.1476 129.418 49.4825 129.169 49.7556C128.919 50.0287 128.617 50.2382 128.262 50.3841C127.911 50.5262 127.512 50.5973 127.067 50.5973C126.651 50.5973 126.27 50.5262 125.922 50.3841C125.578 50.2382 125.28 50.0287 125.027 49.7556C124.778 49.4825 124.583 49.1476 124.443 48.7511C124.307 48.3545 124.239 47.9037 124.239 47.3987C124.239 46.7253 124.354 46.1529 124.585 45.6816C124.815 45.2064 125.144 44.8454 125.571 44.5985C126.001 44.3479 126.513 44.2225 127.106 44.2225C127.673 44.2225 128.168 44.3479 128.591 44.5985C129.018 44.8492 129.348 45.212 129.582 45.6872C129.82 46.1585 129.939 46.729 129.939 47.3987ZM125.214 47.3987C125.214 47.8925 125.28 48.3209 125.412 48.6838C125.544 49.0466 125.748 49.3272 126.024 49.5255C126.3 49.7238 126.655 49.8229 127.089 49.8229C127.52 49.8229 127.873 49.7238 128.149 49.5255C128.428 49.3272 128.634 49.0466 128.766 48.6838C128.899 48.3209 128.965 47.8925 128.965 47.3987C128.965 46.9086 128.899 46.4859 128.766 46.1305C128.634 45.7713 128.43 45.4945 128.155 45.3C127.879 45.1054 127.522 45.0082 127.084 45.0082C126.438 45.0082 125.964 45.2195 125.661 45.6423C125.363 46.065 125.214 46.6505 125.214 47.3987Z" fill="white"></path>
    <path d="M134.387 44.2225C134.512 44.2225 134.642 44.23 134.778 44.245C134.914 44.2562 135.035 44.273 135.141 44.2955L135.022 45.1597C134.92 45.1335 134.806 45.1129 134.682 45.0979C134.557 45.083 134.44 45.0755 134.331 45.0755C134.081 45.0755 133.845 45.126 133.622 45.227C133.403 45.3243 133.211 45.4664 133.044 45.6535C132.878 45.8368 132.748 46.0594 132.653 46.3213C132.559 46.5794 132.512 46.8675 132.512 47.1855V50.4851H131.565V44.3348H132.347L132.449 45.4683H132.489C132.617 45.2401 132.772 45.0325 132.954 44.8454C133.135 44.6546 133.345 44.5031 133.583 44.3909C133.824 44.2787 134.093 44.2225 134.387 44.2225Z" fill="white"></path>
    <path d="M140.331 48.8016C140.331 49.1944 140.231 49.5255 140.031 49.7948C139.834 50.0605 139.551 50.2606 139.181 50.3953C138.814 50.53 138.376 50.5973 137.866 50.5973C137.432 50.5973 137.056 50.5636 136.739 50.4963C136.421 50.429 136.144 50.3336 135.906 50.2101V49.3515C136.159 49.475 136.461 49.5872 136.812 49.6882C137.164 49.7892 137.522 49.8397 137.889 49.8397C138.425 49.8397 138.814 49.7537 139.056 49.5816C139.298 49.4095 139.419 49.1757 139.419 48.8802C139.419 48.7118 139.37 48.564 139.271 48.4368C139.177 48.3059 139.016 48.1806 138.79 48.0609C138.563 47.9374 138.25 47.8027 137.849 47.6568C137.453 47.5072 137.109 47.3594 136.818 47.2135C136.531 47.0639 136.308 46.8824 136.149 46.6692C135.994 46.456 135.917 46.1791 135.917 45.8387C135.917 45.3187 136.129 44.9202 136.552 44.6434C136.978 44.3628 137.538 44.2225 138.229 44.2225C138.603 44.2225 138.952 44.2599 139.277 44.3348C139.606 44.4059 139.912 44.5031 140.195 44.6266L139.878 45.3729C139.621 45.2644 139.347 45.1728 139.056 45.0979C138.765 45.0231 138.469 44.9857 138.166 44.9857C137.732 44.9857 137.398 45.0568 137.164 45.199C136.933 45.3411 136.818 45.5357 136.818 45.7826C136.818 45.9734 136.871 46.1305 136.977 46.2539C137.086 46.3774 137.26 46.4934 137.498 46.6019C137.736 46.7103 138.049 46.8375 138.438 46.9834C138.827 47.1256 139.164 47.2734 139.447 47.4268C139.73 47.5764 139.947 47.7597 140.099 47.9767C140.253 48.1899 140.331 48.4649 140.331 48.8016Z" fill="white"></path>
    <path d="M150.213 47.3987C150.213 47.9037 150.146 48.3545 150.014 48.7511C149.882 49.1476 149.691 49.4825 149.442 49.7556C149.193 50.0287 148.89 50.2382 148.535 50.3841C148.184 50.5262 147.786 50.5973 147.34 50.5973C146.924 50.5973 146.543 50.5262 146.195 50.3841C145.852 50.2382 145.553 50.0287 145.3 49.7556C145.051 49.4825 144.856 49.1476 144.716 48.7511C144.58 48.3545 144.512 47.9037 144.512 47.3987C144.512 46.7253 144.628 46.1529 144.858 45.6816C145.089 45.2064 145.417 44.8454 145.844 44.5985C146.275 44.3479 146.786 44.2225 147.379 44.2225C147.946 44.2225 148.441 44.3479 148.864 44.5985C149.291 44.8492 149.621 45.212 149.856 45.6872C150.094 46.1585 150.213 46.729 150.213 47.3987ZM145.487 47.3987C145.487 47.8925 145.553 48.3209 145.685 48.6838C145.818 49.0466 146.022 49.3272 146.297 49.5255C146.573 49.7238 146.928 49.8229 147.362 49.8229C147.793 49.8229 148.146 49.7238 148.422 49.5255C148.702 49.3272 148.907 49.0466 149.04 48.6838C149.172 48.3209 149.238 47.8925 149.238 47.3987C149.238 46.9086 149.172 46.4859 149.04 46.1305C148.907 45.7713 148.703 45.4945 148.428 45.3C148.152 45.1054 147.795 45.0082 147.357 45.0082C146.711 45.0082 146.237 45.2195 145.935 45.6423C145.636 46.065 145.487 46.6505 145.487 47.3987Z" fill="white"></path>
    <path d="M154.604 45.0643H153.057V50.4851H152.116V45.0643H151.017V44.6153L152.116 44.3067V43.8971C152.116 43.3808 152.194 42.9618 152.349 42.6401C152.504 42.3146 152.728 42.0752 153.023 41.9218C153.318 41.7684 153.676 41.6917 154.099 41.6917C154.337 41.6917 154.555 41.7123 154.751 41.7534C154.951 41.7946 155.127 41.8414 155.278 41.8937L155.034 42.6288C154.906 42.5877 154.761 42.5503 154.598 42.5166C154.439 42.4792 154.277 42.4605 154.111 42.4605C153.752 42.4605 153.486 42.5765 153.312 42.8084C153.142 43.0366 153.057 43.3958 153.057 43.8858V44.3348H154.604V45.0643Z" fill="white"></path>
    <path d="M159.698 41.7534V46.2876C159.698 46.4372 159.692 46.6206 159.681 46.8375C159.669 47.0508 159.66 47.2397 159.652 47.4043H159.692C159.771 47.307 159.886 47.163 160.038 46.9722C160.192 46.7814 160.323 46.628 160.428 46.5121L162.491 44.3348H163.596L161.097 46.961L163.777 50.4851H162.644L160.451 47.5727L159.698 48.2573V50.4851H158.763V41.7534H159.698Z" fill="white"></path>
    <path d="M163.879 44.3348H164.888L166.259 47.9037C166.338 48.1132 166.412 48.3153 166.48 48.5098C166.548 48.7006 166.608 48.8839 166.661 49.0597C166.714 49.2356 166.756 49.4058 166.786 49.5704H166.825C166.878 49.3833 166.954 49.1383 167.052 48.8353C167.15 48.5285 167.256 48.2161 167.369 47.8981L168.667 44.3348H169.681L166.978 51.3885C166.835 51.7664 166.667 52.0956 166.474 52.3762C166.285 52.6568 166.055 52.8719 165.783 53.0215C165.511 53.1749 165.182 53.2516 164.797 53.2516C164.619 53.2516 164.463 53.2404 164.327 53.2179C164.191 53.1992 164.074 53.1768 163.975 53.1506V52.4042C164.059 52.4229 164.159 52.4398 164.276 52.4547C164.397 52.4697 164.521 52.4772 164.65 52.4772C164.884 52.4772 165.086 52.4323 165.256 52.3425C165.43 52.2565 165.579 52.1293 165.704 51.9609C165.828 51.7926 165.936 51.5924 166.027 51.3605L166.367 50.4963L163.879 44.3348Z" fill="white"></path>
    <path d="M172.038 50.4851L169.681 44.3348H170.69L172.055 48.0553C172.15 48.3096 172.246 48.5902 172.344 48.897C172.442 49.2038 172.51 49.4507 172.548 49.6377H172.588C172.633 49.4507 172.709 49.2038 172.815 48.897C172.92 48.5865 173.017 48.3059 173.103 48.0553L174.469 44.3348H175.478L173.115 50.4851H172.038Z" fill="white"></path>
    <path d="M178.866 44.2225C179.395 44.2225 179.848 44.3385 180.226 44.5705C180.603 44.8024 180.892 45.1279 181.093 45.5469C181.293 45.9621 181.393 46.4485 181.393 47.0059V47.5839H177.104C177.115 48.3059 177.296 48.8558 177.648 49.2337C177.999 49.6115 178.494 49.8005 179.132 49.8005C179.525 49.8005 179.873 49.7649 180.175 49.6938C180.477 49.6228 180.79 49.518 181.115 49.3796V50.1989C180.802 50.3373 180.49 50.4383 180.18 50.5019C179.874 50.5655 179.512 50.5973 179.093 50.5973C178.496 50.5973 177.974 50.4776 177.529 50.2382C177.087 49.995 176.743 49.6396 176.497 49.172C176.252 48.7043 176.129 48.1319 176.129 47.4548C176.129 46.7926 176.241 46.2203 176.463 45.7377C176.69 45.2513 177.007 44.8772 177.415 44.6153C177.827 44.3535 178.311 44.2225 178.866 44.2225ZM178.855 44.9857C178.352 44.9857 177.952 45.1485 177.653 45.4739C177.355 45.7994 177.177 46.2539 177.121 46.8375H180.407C180.403 46.4709 180.345 46.1492 180.231 45.8723C180.122 45.5918 179.954 45.3748 179.727 45.2214C179.5 45.0643 179.21 44.9857 178.855 44.9857Z" fill="white"></path>
    <path d="M185.812 44.2225C185.937 44.2225 186.067 44.23 186.203 44.245C186.339 44.2562 186.46 44.273 186.566 44.2955L186.447 45.1597C186.345 45.1335 186.232 45.1129 186.107 45.0979C185.982 45.083 185.865 45.0755 185.756 45.0755C185.507 45.0755 185.27 45.126 185.048 45.227C184.828 45.3243 184.636 45.4664 184.47 45.6535C184.303 45.8368 184.173 46.0594 184.079 46.3213C183.984 46.5794 183.937 46.8675 183.937 47.1855V50.4851H182.991V44.3348H183.773L183.875 45.4683H183.914C184.043 45.2401 184.198 45.0325 184.379 44.8454C184.56 44.6546 184.77 44.5031 185.008 44.3909C185.25 44.2787 185.518 44.2225 185.812 44.2225Z" fill="white"></path>
    <path d="M190.68 44.2225C191.416 44.2225 191.973 44.4021 192.351 44.7613C192.729 45.1167 192.918 45.689 192.918 46.4784V50.4851H191.989V46.5401C191.989 46.0276 191.87 45.6441 191.632 45.3897C191.397 45.1354 191.037 45.0082 190.549 45.0082C189.862 45.0082 189.378 45.2008 189.099 45.5862C188.819 45.9715 188.68 46.5308 188.68 47.264V50.4851H187.739V44.3348H188.498L188.64 45.2214H188.691C188.823 45.0044 188.991 44.823 189.195 44.6771C189.399 44.5274 189.628 44.4152 189.881 44.3404C190.134 44.2618 190.4 44.2225 190.68 44.2225Z" fill="white"></path>
    <path d="M200.21 47.3987C200.21 47.9037 200.144 48.3545 200.012 48.7511C199.879 49.1476 199.689 49.4825 199.439 49.7556C199.19 50.0287 198.888 50.2382 198.533 50.3841C198.182 50.5262 197.783 50.5973 197.337 50.5973C196.922 50.5973 196.54 50.5262 196.193 50.3841C195.849 50.2382 195.551 50.0287 195.298 49.7556C195.048 49.4825 194.854 49.1476 194.714 48.7511C194.578 48.3545 194.51 47.9037 194.51 47.3987C194.51 46.7253 194.625 46.1529 194.856 45.6816C195.086 45.2064 195.415 44.8454 195.841 44.5985C196.272 44.3479 196.784 44.2225 197.377 44.2225C197.944 44.2225 198.438 44.3479 198.861 44.5985C199.288 44.8492 199.619 45.212 199.853 45.6872C200.091 46.1585 200.21 46.729 200.21 47.3987ZM195.484 47.3987C195.484 47.8925 195.551 48.3209 195.683 48.6838C195.815 49.0466 196.019 49.3272 196.295 49.5255C196.57 49.7238 196.926 49.8229 197.36 49.8229C197.791 49.8229 198.144 49.7238 198.42 49.5255C198.699 49.3272 198.905 49.0466 199.037 48.6838C199.169 48.3209 199.235 47.8925 199.235 47.3987C199.235 46.9086 199.169 46.4859 199.037 46.1305C198.905 45.7713 198.701 45.4945 198.425 45.3C198.149 45.1054 197.792 45.0082 197.354 45.0082C196.708 45.0082 196.234 45.2195 195.932 45.6423C195.634 46.065 195.484 46.6505 195.484 47.3987Z" fill="white"></path>
  </g>
  <defs>
    <clipPath id="clip0_23_2030">
      <rect width="201" height="55" fill="white"></rect>
    </clipPath>
  </defs>
</svg>
